<svg width="21" height="26" viewBox="0 0 21 26" fill="none" xmlns="http://www.w3.org/2000/svg">
<path d="M6.82495 15.0445C6.58782 14.8164 6.25999 14.6821 5.91319 14.671C5.56638 14.66 5.22882 14.773 4.97434 14.9855C3.42254 16.2163 2.17718 17.7285 1.31992 19.423C0.462656 21.1176 0.012853 22.9561 0 24.8182C0 25.1316 0.13828 25.4322 0.38442 25.6539C0.630559 25.8755 0.964396 26 1.31249 26C1.66058 26 1.99442 25.8755 2.24056 25.6539C2.4867 25.4322 2.62498 25.1316 2.62498 24.8182C2.63399 23.2798 3.00744 21.7608 3.7204 20.3628C4.43335 18.9647 5.46939 17.7197 6.75932 16.7109C7.01269 16.4974 7.16184 16.2022 7.17413 15.8899C7.18643 15.5776 7.06088 15.2737 6.82495 15.0445ZM20.173 20.5282C19.684 19.2544 18.9754 18.0579 18.073 16.9827C16.7227 15.4075 15.0743 14.0593 13.2036 13C16.1436 11.31 20.9998 7.56364 20.9998 1.18182C20.9998 0.868381 20.8616 0.56778 20.6154 0.346146C20.3693 0.124513 20.0354 0 19.6873 0C19.3393 0 19.0054 0.124513 18.7593 0.346146C18.5131 0.56778 18.3749 0.868381 18.3749 1.18182C18.3749 7.56364 12.3505 10.8373 10.4999 11.6882C9.22584 11.0767 8.04008 10.3266 6.96932 9.45455H10.4999C10.848 9.45455 11.1818 9.33003 11.428 9.1084C11.6741 8.88677 11.8124 8.58617 11.8124 8.27273C11.8124 7.95929 11.6741 7.65869 11.428 7.43706C11.1818 7.21542 10.848 7.09091 10.4999 7.09091H4.65934C4.11885 6.35292 3.67823 5.55941 3.34685 4.72727H14.4374C14.7855 4.72727 15.1193 4.60276 15.3655 4.38113C15.6116 4.15949 15.7499 3.85889 15.7499 3.54545C15.7499 3.23202 15.6116 2.93142 15.3655 2.70978C15.1193 2.48815 14.7855 2.36364 14.4374 2.36364H2.70373C2.65056 1.97153 2.62426 1.57684 2.62498 1.18182C2.62498 0.868381 2.4867 0.56778 2.24056 0.346146C1.99442 0.124513 1.66058 0 1.31249 0C0.964396 0 0.630559 0.124513 0.38442 0.346146C0.13828 0.56778 0 0.868381 0 1.18182C0 10.1282 9.58117 13.9336 9.98805 14.0873C11.4646 14.7261 12.8306 15.5541 14.0436 16.5455H10.4999C10.1518 16.5455 9.81799 16.67 9.57185 16.8916C9.32571 17.1132 9.18743 17.4138 9.18743 17.7273C9.18743 18.0407 9.32571 18.3413 9.57185 18.5629C9.81799 18.7846 10.1518 18.9091 10.4999 18.9091H16.3142C16.8583 19.6452 17.2992 20.4391 17.6267 21.2727H6.56245C6.21435 21.2727 5.88052 21.3972 5.63438 21.6189C5.38824 21.8405 5.24996 22.1411 5.24996 22.4545C5.24996 22.768 5.38824 23.0686 5.63438 23.2902C5.88052 23.5119 6.21435 23.6364 6.56245 23.6364H18.2961C18.3489 24.0285 18.3752 24.4232 18.3749 24.8182C18.3749 25.1316 18.5131 25.4322 18.7593 25.6539C19.0054 25.8755 19.3393 26 19.6873 26C20.0354 26 20.3693 25.8755 20.6154 25.6539C20.8616 25.4322 20.9998 25.1316 20.9998 24.8182C21.0046 23.9487 20.9078 23.0812 20.7111 22.23C20.5832 21.6505 20.4032 21.0814 20.173 20.5282Z" fill="#9F9F9F"/>
</svg>
